<svg xmlns="http://www.w3.org/2000/svg" version="1.1" xmlns:xlink="http://www.w3.org/1999/xlink" width="2048px" height="2048px"><svg xmlns="http://www.w3.org/2000/svg" xml:space="preserve" width="2048px" height="2048px" style="shape-rendering:geometricPrecision; text-rendering:geometricPrecision; image-rendering:optimizeQuality; fill-rule:evenodd; clip-rule:evenodd" viewBox="0 0 2048 2048" xmlns:xlink="http://www.w3.org/1999/xlink">
 <defs>
  <style type="text/css">
   
    .fil2 {fill:none}
    .fil1 {fill:#43A047}
    .fil0 {fill:#66BB6A}
    .fil5 {fill:#C9B8A6}
    .fil6 {fill:#D6CBB7}
    .fil4 {fill:#FEE8CD}
    .fil3 {fill:#DACAB1;fill-rule:nonzero}
   
  </style>
   <clipPath id="SvgjsClipPath1127">
    <path d="M1024 -0.0011811c565.539,0 1024,458.462 1024,1024 0,565.539 -458.462,1024 -1024,1024 -565.539,0 -1024,-458.462 -1024,-1024 0,-565.539 458.462,-1024 1024,-1024z"></path>
   </clipPath>
 </defs>
 <g id="SvgjsG1126">
  <metadata id="SvgjsMetadata1125"></metadata>
  <path class="fil0" d="M1024 -0.0011811c565.539,0 1024,458.462 1024,1024 0,565.539 -458.462,1024 -1024,1024 -565.539,0 -1024,-458.462 -1024,-1024 0,-565.539 458.462,-1024 1024,-1024z"></path>
  <g style="clip-path:url(#id0)">
   <g id="SvgjsG1124">
    <g>
     <polygon id="SvgjsPolygon1123" class="fil1" points="1205.25,555.427 2341.13,1691.31 2341.09,1698.42 1205.2,562.538 "></polygon>
     <polygon id="SvgjsPolygon1122" class="fil1" points="1205.7,488.227 2341.58,1624.11 2341.13,1691.31 1205.25,555.427 "></polygon>
     <polygon id="SvgjsPolygon1121" class="fil1" points="1470.53,796.37 2606.41,1932.25 2606.26,1932.1 1470.38,796.22 "></polygon>
     <polygon id="SvgjsPolygon1120" class="fil1" points="1470.53,796.22 2606.41,1932.1 2606.41,1932.25 1470.53,796.37 "></polygon>
     <polygon id="SvgjsPolygon1119" class="fil1" points="1205.58,562.875 2341.46,1698.76 2328,1701.22 2314.61,1703.35 2301.29,1705.17 2288.04,1706.7 2274.84,1707.95 2261.7,1708.95 2248.61,1709.7 2235.57,1710.22 2222.56,1710.53 2209.59,1710.64 2196.65,1710.57 2183.73,1710.35 2170.84,1709.97 2157.95,1709.46 2145.08,1708.84 2132.21,1708.12 2119.34,1707.32 2106.47,1706.45 2093.58,1705.54 2080.68,1704.58 2067.76,1703.62 2054.81,1702.65 2041.84,1701.7 2028.82,1700.77 2015.77,1699.9 2002.67,1699.09 1989.52,1698.36 1976.32,1697.73 1963.05,1697.2 1949.72,1696.81 1936.32,1696.57 1922.84,1696.48 786.961,560.596 800.437,560.683 813.839,560.93 827.17,561.322 840.435,561.844 853.64,562.477 866.789,563.207 879.889,564.017 892.941,564.891 905.955,565.813 918.931,566.767 931.879,567.735 944.8,568.702 957.7,569.653 970.586,570.57 983.46,571.438 996.329,572.24 1009.2,572.959 1022.07,573.58 1034.95,574.087 1047.85,574.463 1060.77,574.692 1073.71,574.758 1086.68,574.645 1099.69,574.335 1112.73,573.814 1125.82,573.065 1138.96,572.072 1152.16,570.819 1165.41,569.288 1178.73,567.465 1192.11,565.333 "></polygon>
     <polygon id="SvgjsPolygon1118" class="fil1" points="1201.35,474.7 2337.23,1610.58 2338.01,1611.6 2338.71,1612.66 2339.32,1613.76 2339.86,1614.91 2340.33,1616.1 2340.72,1617.33 2341.03,1618.6 2341.27,1619.92 2341.44,1621.27 2341.55,1622.67 2341.58,1624.11 1205.7,488.227 1205.67,486.789 1205.56,485.392 1205.39,484.035 1205.15,482.72 1204.84,481.447 1204.45,480.215 1203.98,479.026 1203.44,477.88 1202.82,476.776 1202.13,475.715 "></polygon>
     <polygon id="SvgjsPolygon1117" class="fil1" points="1361.7,796.434 2497.58,1932.32 2606.26,1932.1 1470.38,796.22 "></polygon>
     <polygon id="SvgjsPolygon1116" class="fil1" points="1470.59,796.434 2606.48,1932.32 2606.41,1932.32 1470.53,796.434 "></polygon>
     <polygon id="SvgjsPolygon1115" class="fil1" points="1229.55,796.434 2365.43,1932.32 2497.58,1932.32 1361.7,796.434 "></polygon>
     <polygon id="SvgjsPolygon1114" class="fil1" points="786.961,560.596 1922.84,1696.48 1920.48,1696.53 1918.14,1696.67 1915.84,1696.9 1913.57,1697.23 1911.33,1697.64 1909.13,1698.14 1906.98,1698.72 1904.86,1699.38 1902.79,1700.12 1900.77,1700.94 1898.81,1701.84 1896.89,1702.81 1895.03,1703.85 1893.23,1704.95 1891.48,1706.13 1889.8,1707.36 1888.19,1708.66 1886.64,1710.02 1885.17,1711.44 1883.77,1712.92 1882.44,1714.44 1881.19,1716.02 1880.02,1717.65 1878.93,1719.33 1877.93,1721.05 1877.01,1722.82 1876.19,1724.62 1875.46,1726.46 1874.82,1728.35 1874.28,1730.26 1873.84,1732.21 1873.51,1734.18 737.625,598.302 737.962,596.325 738.401,594.377 738.941,592.463 739.577,590.581 740.308,588.737 741.133,586.933 742.048,585.168 743.05,583.447 744.136,581.771 745.307,580.143 746.556,578.562 747.884,577.035 749.287,575.561 750.762,574.143 752.308,572.782 753.923,571.482 755.603,570.244 757.345,569.07 759.147,567.963 761.007,566.925 762.924,565.956 764.893,565.062 766.913,564.243 768.981,563.5 771.095,562.837 773.252,562.256 775.449,561.758 777.684,561.345 779.956,561.021 782.261,560.787 784.596,560.645 "></polygon>
     <polygon id="SvgjsPolygon1113" class="fil1" points="737.625,598.302 1873.51,1734.18 1873.42,1734.84 1873.34,1735.5 1873.28,1736.17 1873.22,1736.83 1873.18,1737.5 1873.15,1738.17 1873.13,1738.85 1873.13,1739.52 737.246,603.642 737.252,602.965 737.269,602.291 737.3,601.619 737.342,600.95 737.395,600.284 737.46,599.62 737.536,598.96 "></polygon>
     <polygon id="SvgjsPolygon1112" class="fil1" points="737.246,603.642 1873.13,1739.52 1873.12,1766.42 1873.1,1793.33 1873.06,1820.25 1873.02,1847.19 1872.96,1874.15 1872.89,1901.14 1872.82,1928.16 1872.73,1955.22 1872.64,1982.32 1872.54,2009.47 1872.43,2036.68 1872.32,2063.93 1872.21,2091.26 1872.09,2118.64 1871.98,2146.1 1871.86,2173.63 1871.74,2201.25 1871.62,2228.95 1871.51,2256.74 1871.39,2284.63 1871.28,2312.61 1871.18,2340.71 1871.08,2368.91 1870.99,2397.22 1870.9,2425.66 1870.82,2454.22 1870.76,2482.91 1870.7,2511.73 1870.65,2540.69 1870.62,2569.8 1870.6,2599.05 1870.59,2628.46 734.708,1492.57 734.715,1463.17 734.736,1433.91 734.77,1404.81 734.816,1375.85 734.874,1347.02 734.942,1318.34 735.019,1289.78 735.105,1261.34 735.197,1233.02 735.296,1204.82 735.401,1176.73 735.511,1148.74 735.624,1120.86 735.74,1093.07 735.858,1065.37 735.976,1037.75 736.095,1010.22 736.214,982.759 736.329,955.373 736.443,928.052 736.553,900.794 736.658,873.592 736.757,846.442 736.849,819.34 736.934,792.279 737.012,765.257 737.079,738.267 737.137,711.305 737.183,684.367 737.217,657.447 737.239,630.54 "></polygon>
     <polygon id="SvgjsPolygon1111" class="fil1" points="734.708,1492.57 1870.59,2628.46 1701.45,2628.46 565.57,1492.57 "></polygon>
     <polygon id="SvgjsPolygon1110" class="fil1" points="565.57,1492.57 1701.45,2628.46 1698.91,2628.34 1696.44,2627.99 1694.06,2627.43 1691.78,2626.66 1689.6,2625.7 1687.55,2624.55 1685.64,2623.24 549.758,1487.35 551.671,1488.67 553.721,1489.81 555.895,1490.78 558.178,1491.55 560.56,1492.11 563.028,1492.46 "></polygon>
    </g>
    <path id="SvgjsPath1109" class="fil1" d="M1229.52 784.522l0.0259843 11.9126 132.151 0 108.68 -0.214961 -240.858 -240.858 0 229.16zm241.008 11.8476l-0.15 -0.15 0.15 0 0 0.15zm0 0.0649607l0 -0.0649607 0.0649607 0.0649607 -0.0649607 0zm-904.959 -332.436l598.306 0c30.4299,0 41.8229,8.6752 41.8229,24.228l-0.446457 67.2001 -0.0472441 7.11142 0.372048 0.336614c-144.013,28.0099 -274.441,-2.27835 -418.616,-2.27835 -25.3595,0 -46.2969,16.4587 -49.3359,37.7055 -0.250394,1.74921 -0.379134,3.5315 -0.379134,5.33977 0,286.884 -2.53819,574.431 -2.53819,888.931l-169.138 0c-13.7291,0 -24.8587,-10.2343 -24.8587,-22.8579l0 -982.859c0,-12.6236 11.1295,-22.8579 24.8587,-22.8579z"></path>
   </g>
  </g>
  <path class="fil2" d="M1024 -0.0011811c565.539,0 1024,458.462 1024,1024 0,565.539 -458.462,1024 -1024,1024 -565.539,0 -1024,-458.462 -1024,-1024 0,-565.539 458.462,-1024 1024,-1024z"></path>
  <path class="fil3" d="M737.246 603.642c0,-23.765 22.2673,-43.0453 49.7162,-43.0453 144.174,0 274.602,30.2882 418.615,2.27835l-0.372048 -0.336614 0.49252 -74.3115c0,-15.5528 -11.3917,-24.228 -41.8217,-24.228l-598.306 0c-13.7291,0 -24.8587,10.2343 -24.8587,22.8579l0 982.859c0,12.6236 11.1295,22.8579 24.8587,22.8579l169.138 0c0,-314.501 2.53819,-602.047 2.53819,-888.931z"></path>
  <path class="fil4" d="M760.482 555.427l468.551 0 0.514961 241.269 240.982 -0.475985 0 764.924c0,12.6236 -10.2343,22.8579 -22.8579,22.8579l-687.19 0c-12.6236,0 -22.8567,-10.2343 -22.8567,-22.8579l0 -982.859c0,-12.6236 10.2331,-22.8579 22.8567,-22.8579z"></path>
  <polygon class="fil5" points="1229.52,555.362 1470.59,796.434 1229.52,796.434 "></polygon>
  <polygon class="fil6" points="853.312,829.713 1141.21,829.713 1141.21,875.429 853.312,875.429 "></polygon>
  <polygon class="fil6" points="853.312,1058.28 1354.84,1058.28 1354.84,1104 853.312,1104 "></polygon>
  <polygon class="fil6" points="853.312,1172.57 1354.84,1172.57 1354.84,1218.28 853.312,1218.28 "></polygon>
  <polygon class="fil6" points="853.312,1286.85 1354.84,1286.85 1354.84,1332.57 853.312,1332.57 "></polygon>
  <polygon class="fil6" points="853.312,1401.14 1354.84,1401.14 1354.84,1446.86 853.312,1446.86 "></polygon>
  <polygon class="fil6" points="853.312,943.998 1354.84,943.998 1354.84,989.714 853.312,989.714 "></polygon>
 </g>
</svg><style>@media (prefers-color-scheme: light) { :root { filter: none; } }
@media (prefers-color-scheme: dark) { :root { filter: none; } }
</style></svg>